<svg t="1732232079466" class="icon" viewBox="0 0 1024 1024" version="1.1"
  xmlns="http://www.w3.org/2000/svg" p-id="58027" width="24" height="24">
  <path d="M236.088889 227.555556H796.444444l-28.444444 711.111111H256L227.555556 227.555556h8.533333zM199.111111 938.666667c2.844444 42.666667 19.911111 56.888889 45.511111 56.888889h531.911111c28.444444 0 45.511111-5.688889 45.511111-56.888889l28.444445-711.111111c2.844444-28.444444 0-56.888889-28.444445-56.888889H199.111111C170.666667 170.666667 167.822222 199.111111 170.666667 227.555556l28.444444 711.111111zM967.111111 227.555556c19.911111 0 28.444444-8.533333 28.444445-28.444445s-8.533333-28.444444-28.444445-28.444444H56.888889c-19.911111 0-28.444444 8.533333-28.444445 28.444444s8.533333 28.444444 28.444445 28.444445h910.222222zM369.777778 227.555556h284.444444c28.444444 0 56.888889-28.444444 56.888889-56.888889V85.333333c0-28.444444-19.911111-56.888889-48.355555-56.888889H361.244444c-28.444444 0-48.355556 28.444444-48.355555 56.888889v113.777778c0 28.444444 28.444444 28.444444 56.888889 28.444445z m-2.844445-145.066667L654.222222 85.333333v85.333334H369.777778s2.844444-8.533333 0 0c0 0 0-88.177778-2.844445-88.177778zM597.333333 739.555556c0 19.911111 8.533333 28.444444 28.444445 28.444444s28.444444-8.533333 28.444444-28.444444V455.111111c0-19.911111-14.222222-28.444444-28.444444-28.444444-17.066667 2.844444-28.444444 8.533333-28.444445 28.444444v284.444445z m-170.666666-284.444445c0-19.911111-8.533333-28.444444-28.444445-28.444444s-28.444444 8.533333-28.444444 28.444444v284.444445c0 19.911111 8.533333 28.444444 28.444444 28.444444s28.444444-8.533333 28.444445-28.444444V455.111111z" fill="#707070" p-id="58028"></path>
</svg>