<svg t="1732231884802" class="icon" viewBox="0 0 1024 1024" version="1.1"
  xmlns="http://www.w3.org/2000/svg" p-id="42756" width="24" height="24">
  <path d="M298.667 896h512C859.52 896 896 857.685 896 810.667v-512A42.667 42.667 0 0 0 853.333 256a21.333 21.333 0 1 1 0-42.667 85.333 85.333 0 0 1 85.334 85.334v512c0 77.952-53.163 128-128 128h-512a85.333 85.333 0 0 1-85.334-85.334 21.333 21.333 0 1 1 42.667-0.426C256 876.885 275.115 896 298.667 896zM165.93 85.333h564.096c44.544 0 80.64 36.096 80.64 80.598v564.096a80.597 80.597 0 0 1-80.598 80.64H165.973a80.597 80.597 0 0 1-80.64-80.598V165.973c0-44.544 36.096-80.64 80.598-80.64zM168.02 128A40.021 40.021 0 0 0 128 168.021V727.98C128 750.08 145.92 768 168.021 768H727.98C750.08 768 768 750.08 768 727.979V168.02A39.979 39.979 0 0 0 727.979 128H168.02z m258.646 298.667V277.333a21.333 21.333 0 1 1 42.666 0v149.334h149.334a21.333 21.333 0 1 1 0 42.666H469.333v149.334a21.333 21.333 0 1 1-42.666 0V469.333H277.333a21.333 21.333 0 1 1 0-42.666h149.334z" p-id="42757" fill="#707070"></path>
</svg>