<svg t="1732232002393" class="icon" viewBox="0 0 1024 1024" version="1.1"
      xmlns="http://www.w3.org/2000/svg" p-id="53169" width="24" height="24">
      <path d="M378.944 168.448c0-40 32.448-72.448 72.448-72.448h404.16c40 0 72.448 32.448 72.448 72.448v404.16c0 40-32.448 72.448-72.448 72.448h-210.56v210.56c0 39.936-32.384 72.384-72.32 72.384H168.384A72.448 72.448 0 0 1 96 855.552v-404.16c0-40 32.448-72.448 72.448-72.448H378.88v-210.56zM451.392 160a8.448 8.448 0 0 0-8.448 8.448V410.88a32 32 0 0 1-32 32h-242.56a8.448 8.448 0 0 0-8.384 8.448v404.16a8.44 8.44 0 0 0 8.448 8.448h404.16a8.448 8.448 0 0 0 8.448-8.448V613.12a32 32 0 0 1 32-32h242.56a8.448 8.448 0 0 0 8.384-8.448V168.448a8.448 8.448 0 0 0-8.448-8.448h-404.16z" p-id="53170" fill="#707070"></path>
</svg>