<svg t="1732232445869" class="icon" viewBox="0 0 1024 1024" version="1.1"
  xmlns="http://www.w3.org/2000/svg" p-id="81417" width="32" height="32">
  <path d="M419.5 454.7c13.8 8 28.7 17.2 44.8 26.4l-23.6 31.6c-10.9-8-23-17.2-35.6-24.1V538h-44.8v-52.3c-14.9 21.3-31 39.1-49.4 53.4-9.2-12.1-17.8-24.1-27.6-35.1 25.9-16.1 47.7-34.5 66.7-57.5h-53.4v-37.4h63.8V374h44.8v35.1h55.7v37.4h-55.7v27c-1.2 0.2 14.3-18.8 14.3-18.8z m-26.4 194.2l27.6 36.2c-8 5.2-16.1 9.2-23.6 13.2 14.9 1.1 28.7 1.1 42.5 1.1 9.2 0 13.8-5.2 13.8-16.1v-36.2H287.9V607h367.2v40.2H504v47.1c0 14.9-2.9 26.4-9.2 33.3-5.7 6.9-13.8 10.9-23 13.2s-31.6 2.3-67.8 2.3c-2.9-18.4-6.9-32.2-9.2-44.2-31 17.2-57.5 30.5-82.2 41.4-9.2-16.1-17.8-30.5-25.9-41.4 33.9-12.1 68.4-28.1 106.4-50z m-76.5-100h314.9v38.5H316.6v-38.5z m158.6-139.6h53.4v-35.1h44.8v35.1h68.4v37.4h-57.5c20.1 23 43.7 41.4 72.4 55.2-10.9 13.2-20.1 25.3-27 36.2-20.7-16.1-39.6-35.1-56.9-57.5v56.3H528v-56.3c-14.9 22.4-31.6 42.5-51.7 60.3-8-10.3-17.8-21.3-29.9-33.3 28.7-19 51.7-39.1 69.5-61.5h-40.8v-36.8zM543 651.8c34.5 13.2 71.3 29.3 110.3 48.3l-23 40.2c-35.6-19-71.3-36.2-109.2-51.1l21.9-37.4zM0 366.8c0 39.4 31.9 71.3 71.2 71.3 39.4 0 71.3-31.9 71.3-71.2v-0.1c0-39.4-31.9-71.3-71.2-71.3-39.4 0-71.3 31.9-71.3 71.3zM211.5 857.5c0 39.4 31.9 71.3 71.2 71.3 39.4 0 71.3-31.9 71.3-71.2v-0.1c0-39.4-31.9-71.3-71.3-71.3s-71.2 32-71.2 71.3zM881.5 894.3c0 39.4 31.9 71.3 71.3 71.3s71.3-31.9 71.3-71.3-31.9-71.3-71.3-71.3-71.3 31.9-71.3 71.3zM694.7 499.5c0 39.4 31.9 71.3 71.3 71.3s71.3-31.9 71.3-71.3-31.9-71.3-71.3-71.3-71.3 32-71.3 71.3zM656.2 116.2c0 39.4 31.9 71.3 71.3 71.3s71.3-31.9 71.3-71.3-32-71.2-71.3-71.2c-39.4 0-71.3 31.9-71.3 71.2z" p-id="81418" fill="#f72325"></path>
  <path d="M60.2 324.6L682.8 98.3l18.1 49.7L78.2 374.3l-18-49.7z" p-id="81419" fill="#f72325"></path>
  <path d="M91.7 354.8l209.7 494-50.8 21.6-209.7-494 50.8-21.6z" p-id="81420" fill="#f72325"></path>
  <path d="M261.1 828.8l697.8 61.1-4.6 52.7-697.8-61.1 4.6-52.7zM762 131l29.7 365.4-55 4.5L707 135.5l55-4.5z" p-id="81421" fill="#f72325"></path>
  <path d="M777.7 460.2l190.6 402.5-49.9 23.6-190.5-402.5 49.8-23.6z" p-id="81422" fill="#f72325"></path>
</svg>