<svg t="1732231460802" class="icon" viewBox="0 0 1024 1024" version="1.1"
  xmlns="http://www.w3.org/2000/svg" p-id="25114" width="24" height="24">
  <path d="M298.688 298.688h426.624v426.624H298.688V298.688z" fill="#707070" fill-opacity=".6" p-id="25115"></path>
  <path d="M265.152 752.768v-487.68h487.616v487.68h-487.68z m48.768-438.848V704H704V313.92H313.92z" fill="#707070" p-id="25116"></path>
  <path d="M853.312 0v150.848H1024v48.768h-170.688v629.312H1024v48.768h-170.688V1024h-48.768v-146.304H219.52V1024h-48.768v-146.304H0v-48.768h170.688V199.68H0v-48.768h170.688V0h48.768v150.848h585.088V0h48.768zM219.52 199.616v629.312h585.088V199.68H219.52z" fill="#707070" p-id="25117"></path>
  <path d="M121.92 560.768L12.16 645.248v-168.96l109.76 84.48zM902.08 560.768l109.696 84.48v-168.96l-109.696 84.48zM512 126.464L427.52 16.768h168.96L512 126.464zM512 906.688L427.52 1016.32h168.96L512 906.688z" fill="#707070" p-id="25118"></path>
</svg>