<svg t="1732231639164" class="icon" viewBox="0 0 1024 1024" version="1.1"
  xmlns="http://www.w3.org/2000/svg" p-id="31212" width="24" height="24">
  <path d="M947.6 470.7L822.5 345.5c-8.3-8.3-19.3-12.8-31-12.8s-22.7 4.6-31 12.8l-347 347.1c-9.6 9.6-15.5 22.3-16.7 35.9l-10.9 129.8c-1.1 13.3 3.7 26.4 13.1 35.8 8.5 8.5 20 13.3 32 13.3 1.3 0 2.5-0.1 3.8-0.2l129.9-10.9c13.5-1.1 26.3-7.1 35.9-16.7l347-347c17.1-17 17.1-44.8 0-61.9zM558.8 836.6L447.1 846l9.4-111.6 228.8-228.8 102.3 102.3-228.8 228.7zM830 565.4L727.8 463.1l63.8-63.8 102.2 102.3-63.8 63.8z" p-id="31213" fill="#707070"></path>
  <path d="M961.2 129.5c0-35.9-29.1-65-65-65-25.1 0-46.8 14.2-57.7 35H186.2c-10.8-20.8-32.6-35-57.7-35-35.9 0-65 29.1-65 65 0 25.3 14.4 47.2 35.5 57.9v651.4c-20.7 10.9-34.8 32.6-34.8 57.5 0 35.9 29.1 65 65 65 25.5 0 47.6-14.7 58.2-36.1h123.7c16.6 0 30-13.4 30-30s-13.4-30-30-30H186.3c-6.2-11.4-15.8-20.7-27.3-26.6V186.9c11.6-6.2 21.1-15.7 27.1-27.4h652.3c6.2 11.8 15.8 21.5 27.7 27.7v102.7c0 16.6 13.4 30 30 30s30-13.4 30-30V187.2c20.9-10.9 35.1-32.6 35.1-57.7z" p-id="31214" fill="#707070"></path>
</svg>