<svg t="1732231009852" class="icon" viewBox="0 0 1024 1024" version="1.1"
      xmlns="http://www.w3.org/2000/svg" p-id="3393" width="24" height="24">
      <path d="M894.55 502.87L626.815 792.831V646.485l-26.837-31.573c-77.611-12.757-158.72-9.899-243.2 8.021-69.334 14.72-142.208 63.446-218.71 141.142a528.981 528.981 0 0 1 134.102-229.59l-20.822-20.565 20.822 20.565c88.874-90.069 195.882-135.253 322.901-136.277l31.744-32V228.053L894.549 502.87z m67.029-22.913L617.728 127.02l-54.912 22.314V335.36c-130.347 8.021-242.859 59.605-336.213 154.155C126.293 591.189 68.736 717.867 53.504 867.968l56.576 23.467c103.637-126.507 190.379-191.147 259.968-205.867 67.584-14.336 131.797-17.963 192.768-11.221v200.32l55.467 21.717 343.893-372.395-0.597-44.032z" p-id="3394" fill="#707070"></path>
</svg>