<svg t="1732230967124" class="icon" viewBox="0 0 1024 1024" version="1.1"
      xmlns="http://www.w3.org/2000/svg" p-id="3067" width="24" height="24">
      <path d="M129.45 502.87l267.734 289.962V646.485l26.837-31.573c77.611-12.757 158.72-9.899 243.2 8.021 69.334 14.72 142.208 63.446 218.71 141.142a528.981 528.981 0 0 0-134.102-229.59l20.822-20.565-20.822 20.565c-88.874-90.069-195.882-135.253-322.901-136.277l-31.744-32V228.053L129.451 502.87z m-67.029-22.913L406.272 127.02l54.912 22.314V335.36c130.347 8.021 242.859 59.605 336.213 154.155 100.31 101.674 157.867 228.352 173.099 378.453l-56.576 23.467C810.283 764.928 723.541 700.288 653.91 685.568c-67.542-14.336-131.755-17.963-192.726-11.221v200.32l-55.467 21.717L61.824 523.989l0.597-44.032z" p-id="3068" fill="#707070"></path>
</svg>